<?xml version="1.0" encoding="UTF-8"?>
<!DOCTYPE svg PUBLIC "-//W3C//DTD SVG 1.1//EN" "http://www.w3.org/Graphics/SVG/1.1/DTD/svg11.dtd">
<svg version="1.1" xmlns="http://www.w3.org/2000/svg" xmlns:xlink="http://www.w3.org/1999/xlink" x="0px" y="0px" width="500" height="500" viewBox="0, 0, 500, 500">
  <g id="Background">
    <rect x="0" y="0" width="500" height="500" fill="#FFFFFF"/>
  </g>
  <g id="Layer 1">
    <g>
      <path d="M6.265,68.163 L193.13,66.5 L211.361,94.769 L212.88,355.837 C212.88,355.837 19.932,357.5 10.823,357.5 C1.713,357.5 6.265,68.163 6.265,68.163 z" fill="#FFFFFF"/>
      <path d="M6.265,68.163 L193.13,66.5 L211.361,94.769 L212.88,355.837 C212.88,355.837 19.932,357.5 10.823,357.5 C1.713,357.5 6.265,68.163 6.265,68.163 z" fill-opacity="0" stroke="#000000" stroke-width="1"/>
    </g>
    <text transform="matrix(1, 0, 0, 1, 108.504, 49.5)">
      <tspan x="-42.84" y="7.5" font-family="SourceSansPro-Light" font-size="24" fill="#000000">Unit Test</tspan>
    </text>
    <g>
      <path d="M289.257,68.163 L476.122,66.5 L494.353,94.769 L495.872,355.837 C495.872,355.837 302.924,357.5 293.815,357.5 C284.705,357.5 289.257,68.163 289.257,68.163 z" fill="#FFFFFF"/>
      <path d="M289.257,68.163 L476.122,66.5 L494.353,94.769 L495.872,355.837 C495.872,355.837 302.924,357.5 293.815,357.5 C284.705,357.5 289.257,68.163 289.257,68.163 z" fill-opacity="0" stroke="#000000" stroke-width="1"/>
    </g>
    <text transform="matrix(1, 0, 0, 1, 391.496, 49.5)">
      <tspan x="-36.804" y="7.5" font-family="SourceSansPro-Light" font-size="24" fill="#000000">Subject</tspan>
    </text>
    <text transform="matrix(1, 0, 0, 1, 108.504, 139.441)">
      <tspan x="-85.002" y="-3.48" font-family="SourceCodePro-Light" font-size="16" fill="#000000">itShould</tspan>
    </text>
    <path d="M111.868,133.5 C121.564,130.728 123.742,132.396 131.872,136.461 C135.16,138.105 140.386,133.179 144.872,134.461 C148.455,135.485 150.797,137.879 154.872,138.461 C161.146,139.357 167.086,135.461 172.872,135.461" fill-opacity="0" stroke="#000000" stroke-width="1" stroke-linecap="round"/>
    <text transform="matrix(1, 0, 0, 1, 108.504, 191.48)">
      <tspan x="-85.002" y="-3.48" font-family="SourceCodePro-Light" font-size="16" fill="#000000">itShould</tspan>
    </text>
    <text transform="matrix(1, 0, 0, 1, 108.504, 235.48)">
      <tspan x="-85.002" y="-3.48" font-family="SourceCodePro-Light" font-size="16" fill="#000000">itShould</tspan>
    </text>
    <path d="M109.864,182.539 C115.413,180.57 156.339,183.765 156.868,183.5 C158.133,182.868 158.468,180.7 159.868,180.5 C162.899,180.067 164.276,184.068 166.868,184.5 C169.732,184.977 175.547,183.5 178.868,183.5" fill-opacity="0" stroke="#000000" stroke-width="1" stroke-linecap="round"/>
    <path d="M110.864,228.539 C119.89,220.095 131.627,229.247 133.868,228.5 C134.66,228.236 138.291,223.237 139.868,223.5 C144.283,224.236 142.359,231.337 147.868,229.5 C150.338,228.677 151.3,224.928 153.868,224.5 C158.249,223.77 155.287,229.027 159.868,227.5 C167.789,224.86 172.79,220.115 180.868,225.5" fill-opacity="0" stroke="#000000" stroke-width="1" stroke-linecap="round"/>
    <text transform="matrix(1, 0, 0, 1, 391.496, 200.461)">
      <tspan x="-85.002" y="-64.5" font-family="SourceCodePro-Light" font-size="16" fill="#000000">doStuff() {</tspan>
      <tspan x="-85.002" y="75.5" font-family="SourceCodePro-Light" font-size="16" fill="#000000">}</tspan>
    </text>
    <path d="M324.865,153.539 C333.271,166.961 344.637,150.895 355.868,152.5 C364.01,153.663 371.608,159.08 378.868,161.5 C383.929,163.187 383.987,158.076 386.868,157.5 C389.074,157.059 408.525,163.062 416.868,157.5" fill-opacity="0" stroke="#000000" stroke-width="1" stroke-linecap="round"/>
    <path d="M329.865,192.539 C336.134,194.515 342.189,197.057 348.868,196.5 C359.772,195.591 360.572,186.419 367.868,183.5 C374.37,180.899 385.03,191.306 389.868,190.5 C392.976,189.982 395.828,182.993 398.868,183.5 C405.781,184.652 409.03,190.5 419.868,190.5" fill-opacity="0" stroke="#000000" stroke-width="1" stroke-linecap="round"/>
    <path d="M361.865,219.539 C376.345,229.012 390.76,213.5 395.868,213.5 C398.104,213.5 399.655,216.184 401.868,216.5 C407.359,217.284 414.505,213.5 420.868,213.5" fill-opacity="0" stroke="#000000" stroke-width="1" stroke-linecap="round"/>
    <path d="M324.865,251.162 C350.672,235.029 350.662,249.123 367.868,249.123 C376.28,249.123 383.233,246.668 390.868,244.123 C393.552,243.228 415.133,247.123 420.868,247.123" fill-opacity="0" stroke="#000000" stroke-width="1" stroke-linecap="round"/>
    <g>
      <path d="M100.018,388.106 L100.018,478.305 L129.164,442.601 L154.41,467.03 L171.577,442.601 L196.823,461.392 L228.128,438.843 C228.128,438.843 256.407,461.466 256.407,461.392 C256.407,461.319 284.821,427.641 284.821,427.568 C284.821,427.494 332.141,453.876 332.141,453.876 L349.308,425.689 C349.308,425.689 360.801,435.158 366.733,440.722 C372.665,446.286 397.78,433.205 397.78,433.205 L408.888,453.876 L408.888,386.227 L100.018,388.106 z" fill="#FFFFFF"/>
      <path d="M100.018,388.106 L100.018,478.305 L129.164,442.601 L154.41,467.03 L171.577,442.601 L196.823,461.392 L228.128,438.843 C228.128,438.843 256.407,461.466 256.407,461.392 C256.407,461.319 284.821,427.641 284.821,427.568 C284.821,427.494 332.141,453.876 332.141,453.876 L349.308,425.689 C349.308,425.689 360.801,435.158 366.733,440.722 C372.665,446.286 397.78,433.205 397.78,433.205 L408.888,453.876 L408.888,386.227 L100.018,388.106 z" fill-opacity="0" stroke="#000000" stroke-width="1"/>
    </g>
    <g>
      <path d="M76.006,388.5" fill="#FFFFFF"/>
      <path d="M76.006,388.5" fill-opacity="0" stroke="#000000" stroke-width="1"/>
    </g>
    <text transform="matrix(1, -0.002, 0.002, 1, 253.959, 409.278)">
      <tspan x="-150.936" y="5.52" font-family="SourceSansPro-Light" font-size="24" fill="#000000">Feature: It should do more stuff</tspan>
    </text>
  </g>
  <defs/>
</svg>
