<?xml version="1.0" encoding="UTF-8"?>
<!DOCTYPE svg PUBLIC "-//W3C//DTD SVG 1.1//EN" "http://www.w3.org/Graphics/SVG/1.1/DTD/svg11.dtd">
<svg version="1.1" xmlns="http://www.w3.org/2000/svg" xmlns:xlink="http://www.w3.org/1999/xlink" x="0px" y="0px" width="500" height="440" viewBox="0, 0, 500, 440">
  <g id="Background">
    <rect x="0" y="0" width="500" height="440" fill="#FFFFFF"/>
  </g>
  <g id="Layer 1">
    <g>
      <path d="M12.579,43.223 L161.736,42.805 L176.287,49.917 L177.5,115.597 C177.5,115.597 23.489,116.015 16.217,116.015 C8.946,116.015 12.579,43.223 12.579,43.223 z" fill="#FFFFFF"/>
      <path d="M12.579,43.223 L161.736,42.805 L176.287,49.917 L177.5,115.597 C177.5,115.597 23.489,116.015 16.217,116.015 C8.946,116.015 12.579,43.223 12.579,43.223 z" fill-opacity="0" stroke="#000000" stroke-width="1"/>
    </g>
    <text transform="matrix(1, 0, 0, 1, 94.086, 30.776)">
      <tspan x="-40.563" y="6" font-family="SourceSansPro-Light" font-size="18" fill="#000000">Parent Test</tspan>
    </text>
    <text transform="matrix(1, 0, 0, 1, 82.911, 86.015)">
      <tspan x="-60.741" y="-4.5" font-family="SourceCodePro-Bold" font-size="13" fill="#00AC00">itUsesChildren</tspan>
    </text>
    <path d="M135.172,80.675 C140.17,83.248 141.293,81.7 145.484,77.926 C147.179,76.4 149.874,80.972 152.186,79.783 C154.033,78.832 155.241,76.61 157.342,76.069 C160.576,75.237 163.639,78.854 166.621,78.854" fill-opacity="0" stroke="#00C600" stroke-width="1" stroke-linecap="round"/>
    <g>
      <path d="M302.367,34.068 L437.967,33.478 L451.196,43.515 L452.299,136.205 C452.299,136.205 312.285,136.796 305.675,136.796 C299.064,136.796 302.367,34.068 302.367,34.068 z" fill="#FFFFFF"/>
      <path d="M302.367,34.068 L437.967,33.478 L451.196,43.515 L452.299,136.205 C452.299,136.205 312.285,136.796 305.675,136.796 C299.064,136.796 302.367,34.068 302.367,34.068 z" fill-opacity="0" stroke="#000000" stroke-width="1"/>
    </g>
    <text transform="matrix(1, 0, 0, 1, 396.901, 91.796)">
      <tspan x="-85.002" y="-28.5" font-family="SourceCodePro-Light" font-size="16" fill="#000000">doStuff() {</tspan>
      <tspan x="-85.002" y="31.5" font-family="SourceCodePro-Light" font-size="16" fill="#000000">}</tspan>
    </text>
    <text transform="matrix(1, 0, 0, 1, 375.127, 20.978)">
      <tspan x="-23.796" y="6" font-family="SourceSansPro-Light" font-size="18" fill="#000000">Parent</tspan>
    </text>
    <g>
      <path d="M280.445,188.718 L385.607,188.182 L395.867,197.294 L396.722,281.448 C396.722,281.448 288.136,281.984 283.009,281.984 C277.883,281.984 280.445,188.718 280.445,188.718 z" fill="#FFFFFF"/>
      <path d="M280.445,188.718 L385.607,188.182 L395.867,197.294 L396.722,281.448 C396.722,281.448 288.136,281.984 283.009,281.984 C277.883,281.984 280.445,188.718 280.445,188.718 z" fill-opacity="0" stroke="#000000" stroke-width="1"/>
    </g>
    <text transform="matrix(1, 0, 0, 1, 323.744, 237.448)">
      <tspan x="-32.295" y="-30.793" font-family="SourceCodePro-Light" font-size="13" fill="#000000">do() {</tspan>
      <tspan x="-32.295" y="37.207" font-family="SourceCodePro-Light" font-size="13" fill="#000000">}</tspan>
    </text>
    <path d="M303.135,229.732 C317.976,237.124 332.751,225.02 337.986,225.02 C340.278,225.02 341.867,227.114 344.136,227.361 C349.763,227.973 357.088,225.02 363.609,225.02" fill-opacity="0" stroke="#000000" stroke-width="1" stroke-linecap="round"/>
    <path d="M303.135,255.187 C323.271,242.599 323.264,253.596 336.69,253.596 C343.253,253.596 348.678,251.68 354.636,249.695 C356.73,248.997 373.569,252.035 378.044,252.035" fill-opacity="0" stroke="#000000" stroke-width="1" stroke-linecap="round"/>
    <text transform="matrix(1, 0, 0, 1, 377.566, 99.81)">
      <tspan x="-48" y="5.5" font-family="SourceCodePro-Light" font-size="16" fill="#000002">child.do()</tspan>
    </text>
    <g>
      <path d="M73.915,189.982 L226.569,189.453 L241.462,198.442 L242.704,281.456 C242.704,281.456 85.08,281.984 77.639,281.984 C70.197,281.984 73.915,189.982 73.915,189.982 z" fill="#FFFFFF"/>
      <path d="M73.915,189.982 L226.569,189.453 L241.462,198.442 L242.704,281.456 C242.704,281.456 85.08,281.984 77.639,281.984 C70.197,281.984 73.915,189.982 73.915,189.982 z" fill-opacity="0" stroke="#000000" stroke-width="1"/>
    </g>
    <text transform="matrix(1, 0, 0, 1, 154.319, 176.953)">
      <tspan x="-35.685" y="6" font-family="SourceSansPro-Light" font-size="18" fill="#000000">Child Test</tspan>
    </text>
    <text transform="matrix(1, 0, 0, 1, 154.319, 229.521)">
      <tspan x="-71.916" y="-0.89" font-family="SourceCodePro-Light" font-size="13" fill="#000000">itShould</tspan>
    </text>
    <text transform="matrix(1, 0, 0, 1, 154.319, 261.4)">
      <tspan x="-71.916" y="-0.89" font-family="SourceCodePro-Light" font-size="13" fill="#000000">itShouldInstead</tspan>
    </text>
    <path d="M158.425,227.539 C169.187,213.239 169.339,233.394 177.386,232.5 C181.839,232.005 188.608,217.574 218.386,227.5" fill-opacity="0" stroke="#000000" stroke-width="2" stroke-linecap="round"/>
    <g>
      <path d="M204.386,258.064 C208.218,265.327 212.295,254.304 214.322,254.304 C216.126,254.304 218.642,259.23 221.432,258.016 C222.83,257.407 224.303,252.46 225.698,253.066 C227.757,253.962 228.99,256.778 231.386,256.778" fill="#FFFFFF"/>
      <path d="M204.386,258.064 C208.218,265.327 212.295,254.304 214.322,254.304 C216.126,254.304 218.642,259.23 221.432,258.016 C222.83,257.407 224.303,252.46 225.698,253.066 C227.757,253.962 228.99,256.778 231.386,256.778" fill-opacity="0" stroke="#000000" stroke-width="2" stroke-linecap="round"/>
    </g>
    <g>
      <path d="M199.001,35.17 L284.851,34.949 L293.227,38.717 L293.925,73.518 C293.925,73.518 205.28,73.739 201.095,73.739 C196.91,73.739 199.001,35.17 199.001,35.17 z" fill="#FFFFFF"/>
      <path d="M199.001,35.17 L284.851,34.949 L293.227,38.717 L293.925,73.518 C293.925,73.518 205.28,73.739 201.095,73.739 C196.91,73.739 199.001,35.17 199.001,35.17 z" fill-opacity="0" stroke="#000000" stroke-width="1"/>
    </g>
    <text transform="matrix(1, 0, 0, 1, 248.513, 53.844)">
      <tspan x="-35.282" y="4.707" font-family="SourceCodePro-Light" font-size="16" fill="#000000">do()</tspan>
    </text>
    <text transform="matrix(1, 0, 0, 1, 243.702, 24.546)">
      <tspan x="-33.448" y="5.098" font-family="SourceSansPro-Light" font-size="16" fill="#000000">Fake Child</tspan>
    </text>
    <text transform="matrix(1, 0, 0, 1, 388.586, 89.006)">
      <tspan x="-59.02" y="-4.5" font-family="SourceCodePro-Bold" font-size="16" fill="#00C200">child2.do2()</tspan>
    </text>
    <g>
      <path d="M199.001,108.134 L284.851,107.912 L293.227,111.681 L293.925,146.481 C293.925,146.481 205.28,146.703 201.095,146.703 C196.91,146.703 199.001,108.134 199.001,108.134 z" fill="#FFFFFF"/>
      <path d="M199.001,108.134 L284.851,107.912 L293.227,111.681 L293.925,146.481 C293.925,146.481 205.28,146.703 201.095,146.703 C196.91,146.703 199.001,108.134 199.001,108.134 z" fill-opacity="0" stroke="#00C000" stroke-width="1"/>
    </g>
    <text transform="matrix(1, 0, 0, 1, 248.513, 126.808)">
      <tspan x="-35.282" y="4.707" font-family="SourceCodePro-Bold" font-size="16" fill="#00C400">do2()</tspan>
    </text>
    <text transform="matrix(1, 0, 0, 1, 245.702, 96.51)">
      <tspan x="-41.472" y="5.098" font-family="SourceSansPro-Black" font-size="16" fill="#00C800">Fake Child2</tspan>
    </text>
    <text transform="matrix(1, 0, 0, 1, 333.645, 175.39)">
      <tspan x="-18.918" y="6" font-family="SourceSansPro-Light" font-size="18" fill="#000000">Child</tspan>
    </text>
    <g>
      <path d="M288.176,326.083 L393.338,325.529 L403.598,334.961 L404.453,422.071 C404.453,422.071 295.867,422.626 290.741,422.626 C285.614,422.626 288.176,326.083 288.176,326.083 z" fill="#FFFFFF"/>
      <path d="M288.176,326.083 L393.338,325.529 L403.598,334.961 L404.453,422.071 C404.453,422.071 295.867,422.626 290.741,422.626 C285.614,422.626 288.176,326.083 288.176,326.083 z" fill-opacity="0" stroke="#000000" stroke-width="1"/>
    </g>
    <text transform="matrix(1, 0, 0, 1, 331.475, 373.795)">
      <tspan x="-32.295" y="-30.793" font-family="SourceCodePro-Light" font-size="13" fill="#000000">do2() {</tspan>
      <tspan x="-32.295" y="37.207" font-family="SourceCodePro-Light" font-size="13" fill="#000000">}</tspan>
    </text>
    <g>
      <path d="M73.915,330.623 L226.569,330.095 L241.462,339.083 L242.704,422.097 C242.704,422.097 85.08,422.626 77.639,422.626 C70.197,422.626 73.915,330.623 73.915,330.623 z" fill="#FFFFFF"/>
      <path d="M73.915,330.623 L226.569,330.095 L241.462,339.083 L242.704,422.097 C242.704,422.097 85.08,422.626 77.639,422.626 C70.197,422.626 73.915,330.623 73.915,330.623 z" fill-opacity="0" stroke="#000000" stroke-width="1"/>
    </g>
    <text transform="matrix(1, 0, 0, 1, 154.319, 317.595)">
      <tspan x="-39.996" y="6" font-family="SourceSansPro-Light" font-size="18" fill="#000000">Child2 Test</tspan>
    </text>
    <text transform="matrix(1, 0, 0, 1, 154.319, 370.163)">
      <tspan x="-71.916" y="-0.89" font-family="SourceCodePro-Light" font-size="13" fill="#000000">itShould</tspan>
    </text>
    <text transform="matrix(1, 0, 0, 1, 120.164, 397.942)">
      <tspan x="-37.761" y="-0.89" font-family="SourceCodePro-Light" font-size="13" fill="#000000">itShould</tspan>
    </text>
    <path d="M158.425,368.18 C169.187,353.88 169.339,374.035 177.386,373.141 C181.839,372.647 188.608,358.216 218.386,368.141" fill-opacity="0" stroke="#000000" stroke-width="2" stroke-linecap="round"/>
    <g>
      <path d="M158.425,392.082 C168.781,399.345 179.797,388.321 185.274,388.321 C190.15,388.321 196.947,393.247 204.487,392.033 C208.265,391.425 212.247,386.477 216.015,387.084 C221.579,387.98 224.913,390.796 231.386,390.796" fill="#FFFFFF"/>
      <path d="M158.425,392.082 C168.781,399.345 179.797,388.321 185.274,388.321 C190.15,388.321 196.947,393.247 204.487,392.033 C208.265,391.425 212.247,386.477 216.015,387.084 C221.579,387.98 224.913,390.796 231.386,390.796" fill-opacity="0" stroke="#000000" stroke-width="2" stroke-linecap="round"/>
    </g>
    <text transform="matrix(1, 0, 0, 1, 341.376, 312.736)">
      <tspan x="-23.229" y="6" font-family="SourceSansPro-Light" font-size="18" fill="#000000">Child2</tspan>
    </text>
    <path d="M312.399,361.626 C317.536,371.896 324.482,359.603 331.345,360.83 C336.32,361.72 340.963,365.865 345.4,367.717 C348.493,369.008 348.528,365.097 350.289,364.656 C351.637,364.319 363.523,368.913 368.622,364.656" fill-opacity="0" stroke="#000000" stroke-width="1" stroke-linecap="round"/>
    <path d="M315.454,391.468 C319.285,392.98 322.986,394.925 327.068,394.499 C333.731,393.804 334.219,386.785 338.678,384.552 C342.652,382.561 349.166,390.525 352.122,389.908 C354.022,389.512 355.765,384.164 357.622,384.552 C361.846,385.433 363.832,389.908 370.455,389.908" fill-opacity="0" stroke="#000000" stroke-width="1" stroke-linecap="round"/>
    <path d="M500.5,156.453 L0.5,156.453" fill-opacity="0" stroke="#00009A" stroke-width="1" stroke-opacity="0.383" stroke-dasharray="6,5"/>
    <path d="M499.013,294.422 L-0.987,294.422" fill-opacity="0" stroke="#00009A" stroke-width="1" stroke-opacity="0.383" stroke-dasharray="6,5"/>
  </g>
  <defs/>
</svg>
