<?xml version="1.0" encoding="UTF-8"?>
<!DOCTYPE svg PUBLIC "-//W3C//DTD SVG 1.1//EN" "http://www.w3.org/Graphics/SVG/1.1/DTD/svg11.dtd">
<svg version="1.1" xmlns="http://www.w3.org/2000/svg" xmlns:xlink="http://www.w3.org/1999/xlink" x="0px" y="0px" width="500" height="440" viewBox="0, 0, 500, 440">
  <g id="Background">
    <rect x="0" y="0" width="500" height="440" fill="#FFFFFF"/>
  </g>
  <g id="Layer 1">
    <g>
      <path d="M170.723,80.809 L330.277,80.809 L330.277,157.129 L170.723,157.129 z" fill="#FFFFFF"/>
      <path d="M170.723,80.809 L330.277,80.809 L330.277,157.129 L170.723,157.129 z" fill-opacity="0" stroke="#000000" stroke-width="1"/>
    </g>
    <text transform="matrix(1, 0, 0, 1, 248.986, 121.619)">
      <tspan x="-67.2" y="-10.381" font-family="SourceCodePro-Light" font-size="16" fill="#000000">Monthly Profit </tspan>
      <tspan x="-52.8" y="9.619" font-family="SourceCodePro-Light" font-size="16" fill="#000000">Report Page</tspan>
    </text>
    <text transform="matrix(1, 0, 0, 1, 250, 30.391)">
      <tspan x="-96" y="4.215" font-family="SourceCodePro-Regular" font-size="20" fill="#000000">/profits/2013/12</tspan>
    </text>
    <path d="M0.5,60.789 L500.5,60.789" fill-opacity="0" stroke="#000000" stroke-width="1" stroke-opacity="0.684" stroke-dasharray="3,2"/>
    <path d="M252.5,46.676 L251.5,80.809" fill-opacity="0" stroke="#000000" stroke-width="1" stroke-opacity="0.684"/>
    <g>
      <path d="M56.09,182.34 L215.645,182.34 L215.645,258.66 L56.09,258.66 z" fill="#FFFFFF"/>
      <path d="M56.09,182.34 L215.645,182.34 L215.645,258.66 L56.09,258.66 z" fill-opacity="0" stroke="#00BA00" stroke-width="2" stroke-dasharray="12,10"/>
    </g>
    <text transform="matrix(1, 0, 0, 1, 133.6, 220.988)">
      <tspan x="-62.4" y="-7.828" font-family="SourceCodePro-Light" font-size="16" fill="#000000">Finds Revenue </tspan>
      <tspan x="-38.4" y="12.172" font-family="SourceCodePro-Light" font-size="16" fill="#000000">By Month</tspan>
    </text>
    <g>
      <path d="M282.57,182.34 L442.125,182.34 L442.125,258.66 L282.57,258.66 z" fill="#FFFFFF"/>
      <path d="M282.57,182.34 L442.125,182.34 L442.125,258.66 L282.57,258.66 z" fill-opacity="0" stroke="#00BA00" stroke-width="2" stroke-dasharray="12,10"/>
    </g>
    <text transform="matrix(1, 0, 0, 1, 360.08, 220.988)">
      <tspan x="-52.8" y="-7.828" font-family="SourceCodePro-Light" font-size="16" fill="#000000">Finds Costs </tspan>
      <tspan x="-38.4" y="12.172" font-family="SourceCodePro-Light" font-size="16" fill="#000000">By Month</tspan>
    </text>
    <path d="M246.246,157.129 L150.5,182.34" fill-opacity="0" stroke="#00BA00" stroke-width="2"/>
    <path d="M246.246,157.129 L365.5,182.34" fill-opacity="0" stroke="#00BA00" stroke-width="2"/>
    <path d="M0.5,0.5 L499.5,0.5 L499.5,439.5 L0.5,439.5 z" fill-opacity="0" stroke="#000000" stroke-width="1"/>
  </g>
  <defs/>
</svg>
