<?xml version="1.0" encoding="UTF-8"?>
<!DOCTYPE svg PUBLIC "-//W3C//DTD SVG 1.1//EN" "http://www.w3.org/Graphics/SVG/1.1/DTD/svg11.dtd">
<svg version="1.1" xmlns="http://www.w3.org/2000/svg" xmlns:xlink="http://www.w3.org/1999/xlink" x="0px" y="0px" width="500" height="440" viewBox="0, 0, 500, 440">
  <g id="Background">
    <rect x="0" y="0" width="500" height="440" fill="#FFFFFF"/>
  </g>
  <g id="Layer 1">
    <g>
      <path d="M170.723,82.901 L330.277,82.901 L330.277,159.221 L170.723,159.221 z" fill="#FFFFFF"/>
      <path d="M170.723,82.901 L330.277,82.901 L330.277,159.221 L170.723,159.221 z" fill-opacity="0" stroke="#000000" stroke-width="1"/>
    </g>
    <text transform="matrix(1, 0, 0, 1, 248.986, 123.712)">
      <tspan x="-67.2" y="-10.381" font-family="SourceCodePro-Light" font-size="16" fill="#000000">Monthly Profit </tspan>
      <tspan x="-52.8" y="9.619" font-family="SourceCodePro-Light" font-size="16" fill="#000000">Report Page</tspan>
    </text>
    <text transform="matrix(1, 0, 0, 1, 250, 32.483)">
      <tspan x="-96" y="4.215" font-family="SourceCodePro-Regular" font-size="20" fill="#000000">/profits/2013/12</tspan>
    </text>
    <path d="M0.5,62.881 L500.5,62.881" fill-opacity="0" stroke="#000000" stroke-width="1" stroke-opacity="0.684" stroke-dasharray="3,2"/>
    <path d="M252.5,48.768 L251.5,82.901" fill-opacity="0" stroke="#000000" stroke-width="1" stroke-opacity="0.684"/>
    <g>
      <path d="M282.57,184.432 L442.125,184.432 L442.125,260.753 L282.57,260.753 z" fill="#FFFFFF"/>
      <path d="M282.57,184.432 L442.125,184.432 L442.125,260.753 L282.57,260.753 z" fill-opacity="0" stroke="#000000" stroke-width="1"/>
    </g>
    <text transform="matrix(1, 0, 0, 1, 360.08, 211.081)">
      <tspan x="-52.8" y="4.172" font-family="SourceCodePro-Light" font-size="16" fill="#000000">CostCounter</tspan>
    </text>
    <path d="M246.246,159.221 L150.5,184.432" fill-opacity="0" stroke="#000000" stroke-width="1"/>
    <path d="M246.246,159.221 L365.5,184.432" fill-opacity="0" stroke="#000000" stroke-width="1"/>
    <g>
      <path d="M8.98,285.553 L138.934,285.553 L138.934,332.417 L8.98,332.417 z" fill="#FFFFFF"/>
      <path d="M8.98,285.553 L138.934,285.553 L138.934,332.417 L8.98,332.417 z" fill-opacity="0" stroke="#000000" stroke-width="1"/>
    </g>
    <path d="M135.167,260.753 L91.5,285.553" fill-opacity="0" stroke="#000000" stroke-width="1"/>
    <path d="M-233.809,11.979 L-233.5,11.592" fill-opacity="0" stroke="#00BA00" stroke-width="2" stroke-linecap="round"/>
    <text transform="matrix(1, 0, 0, 1, 88.788, 321.417)">
      <tspan x="-76.805" y="2.5" font-family="SourceCodePro-Light" font-size="13" fill="#000000">- fetch(2013,12)</tspan>
    </text>
    <text transform="matrix(1, 0, 0, 1, 73.457, 299.728)">
      <tspan x="-58.8" y="4.257" font-family="SourceCodePro-Light" font-size="14" fill="#000000">InvoiceFetcher</tspan>
    </text>
    <g>
      <path d="M331.547,103.51 C320.864,103.51 312.203,95.227 312.203,85.008 C312.203,74.79 320.864,66.506 331.547,66.506 C342.23,66.506 350.891,74.79 350.891,85.008 C350.891,95.227 342.23,103.51 331.547,103.51 z" fill="#FFFFFF"/>
      <path d="M331.547,103.51 C320.864,103.51 312.203,95.227 312.203,85.008 C312.203,74.79 320.864,66.506 331.547,66.506 C342.23,66.506 350.891,74.79 350.891,85.008 C350.891,95.227 342.23,103.51 331.547,103.51 z" fill-opacity="0" stroke="#000000" stroke-width="1"/>
    </g>
    <path d="M319.621,84.635 C319.621,84.635 328.52,90.963 328.52,96.799 C328.52,102.635 336.453,73.604 345.191,76.62" fill-opacity="0" stroke="#00B000" stroke-width="2"/>
    <text transform="matrix(1, 0, 0, 1, 366.996, 238.259)">
      <tspan x="-76.805" y="2.5" font-family="SourceCodePro-Light" font-size="13" fill="#000000">- count(2013,12)</tspan>
    </text>
    <g>
      <path d="M162.586,285.553 L299.908,285.553 L299.908,332.417 L162.586,332.417 z" fill="#FFFFFF"/>
      <path d="M162.586,285.553 L299.908,285.553 L299.908,332.417 L162.586,332.417 z" fill-opacity="0" stroke="#000000" stroke-width="1"/>
    </g>
    <path d="M170.723,260.753 L205.756,285.553" fill-opacity="0" stroke="#000000" stroke-width="1"/>
    <text transform="matrix(1, 0, 0, 1, 244.91, 321.417)">
      <tspan x="-76.805" y="2.5" font-family="SourceCodePro-Light" font-size="13" fill="#000000">- apply(invoices)</tspan>
    </text>
    <text transform="matrix(1, 0, 0, 1, 228.747, 299.728)">
      <tspan x="-58.8" y="4.257" font-family="SourceCodePro-Light" font-size="14" fill="#000000">PaymentApplier</tspan>
    </text>
    <g>
      <path d="M22.583,363.97 L162.534,363.97 L162.534,410.833 L22.583,410.833 z" fill="#FFFFFF"/>
      <path d="M22.583,363.97 L162.534,363.97 L162.534,410.833 L22.583,410.833 z" fill-opacity="0" stroke="#000000" stroke-width="1"/>
    </g>
    <path d="M164.895,332.417 L117.5,363.97" fill-opacity="0" stroke="#000000" stroke-width="1"/>
    <text transform="matrix(1, 0, 0, 1, 104.637, 399.833)">
      <tspan x="-76.805" y="2.5" font-family="SourceCodePro-Light" font-size="13" fill="#000000">- verify(invoice)</tspan>
    </text>
    <text transform="matrix(1, -0.004, 0.004, 1, 95.189, 379.319)">
      <tspan x="-46.2" y="4.257" font-family="SourceCodePro-Light" font-size="14" fill="#000000">AchVerifier</tspan>
    </text>
    <g>
      <path d="M218.168,363.97 L355.49,363.97 L355.49,410.833 L218.168,410.833 z" fill="#FFFFFF"/>
      <path d="M218.168,363.97 L355.49,363.97 L355.49,410.833 L218.168,410.833 z" fill-opacity="0" stroke="#000000" stroke-width="1"/>
    </g>
    <path d="M214.134,332.417 L282.57,363.97" fill-opacity="0" stroke="#000000" stroke-width="1"/>
    <text transform="matrix(1, 0, 0, 1, 300.492, 399.833)">
      <tspan x="-76.805" y="2.5" font-family="SourceCodePro-Light" font-size="13" fill="#000000">- add(payments)</tspan>
    </text>
    <text transform="matrix(1, 0, 0, 1, 284.329, 378.145)">
      <tspan x="-50.4" y="4.257" font-family="SourceCodePro-Light" font-size="14" fill="#000000">PaymentAdder</tspan>
    </text>
    <g>
      <path d="M56.09,184.432 L215.645,184.432 L215.645,260.753 L56.09,260.753 z" fill="#FFFFFF"/>
      <path d="M56.09,184.432 L215.645,184.432 L215.645,260.753 L56.09,260.753 z" fill-opacity="0" stroke="#000000" stroke-width="1"/>
    </g>
    <text transform="matrix(1, 0, 0, 1, 135.367, 211.081)">
      <tspan x="-52.8" y="3.678" font-family="SourceCodePro-Light" font-size="16" fill="#000000">MoneyFinder</tspan>
    </text>
    <text transform="matrix(1, 0, 0, 1, 142.283, 238.259)">
      <tspan x="-76.805" y="2.5" font-family="SourceCodePro-Light" font-size="13" fill="#000000">- find(2013,12)</tspan>
    </text>
    <g>
      <g>
        <path d="M54.198,176.297 L158.627,176.297 C162.923,176.297 166.405,178.283 166.405,180.733 L166.405,190.823 C166.405,193.272 162.923,195.258 158.627,195.258 L54.198,195.258 C49.903,195.258 46.421,193.272 46.421,190.823 L46.421,180.733 C46.421,178.283 49.903,176.297 54.198,176.297 z" fill="#FFFFFF"/>
        <path d="M54.198,176.297 L158.627,176.297 C162.923,176.297 166.405,178.283 166.405,180.733 L166.405,190.823 C166.405,193.272 162.923,195.258 158.627,195.258 L54.198,195.258 C49.903,195.258 46.421,193.272 46.421,190.823 L46.421,180.733 C46.421,178.283 49.903,176.297 54.198,176.297 z" fill-opacity="0" stroke="#000000" stroke-width="1"/>
      </g>
      <text transform="matrix(1, 0, 0, 1, 107.967, 185.278)">
        <tspan x="-57.938" y="4.52" font-family="SourceCodePro-Bold" font-size="14" fill="#000000">Collaboration</tspan>
      </text>
    </g>
    <g>
      <g>
        <path d="M170.364,75.528 L274.792,75.528 C279.088,75.528 282.57,77.514 282.57,79.964 L282.57,90.053 C282.57,92.503 279.088,94.489 274.792,94.489 L170.364,94.489 C166.068,94.489 162.586,92.503 162.586,90.053 L162.586,79.964 C162.586,77.514 166.068,75.528 170.364,75.528 z" fill="#FFFFFF"/>
        <path d="M170.364,75.528 L274.792,75.528 C279.088,75.528 282.57,77.514 282.57,79.964 L282.57,90.053 C282.57,92.503 279.088,94.489 274.792,94.489 L170.364,94.489 C166.068,94.489 162.586,92.503 162.586,90.053 L162.586,79.964 C162.586,77.514 166.068,75.528 170.364,75.528 z" fill-opacity="0" stroke="#000000" stroke-width="1"/>
      </g>
      <text transform="matrix(1, 0, 0, 1, 224.133, 84.508)">
        <tspan x="-57.938" y="4.52" font-family="SourceCodePro-Bold" font-size="14" fill="#000000">Collaboration</tspan>
      </text>
    </g>
    <g>
      <g>
        <path d="M161.945,272.456 L266.373,272.456 C270.669,272.456 274.151,274.442 274.151,276.892 L274.151,286.981 C274.151,289.431 270.669,291.417 266.373,291.417 L161.945,291.417 C157.649,291.417 154.167,289.431 154.167,286.981 L154.167,276.892 C154.167,274.442 157.649,272.456 161.945,272.456 z" fill="#FFFFFF"/>
        <path d="M161.945,272.456 L266.373,272.456 C270.669,272.456 274.151,274.442 274.151,276.892 L274.151,286.981 C274.151,289.431 270.669,291.417 266.373,291.417 L161.945,291.417 C157.649,291.417 154.167,289.431 154.167,286.981 L154.167,276.892 C154.167,274.442 157.649,272.456 161.945,272.456 z" fill-opacity="0" stroke="#000000" stroke-width="1"/>
      </g>
      <text transform="matrix(1, 0, 0, 1, 215.714, 281.436)">
        <tspan x="-57.938" y="4.52" font-family="SourceCodePro-Bold" font-size="14" fill="#000000">Collaboration</tspan>
      </text>
    </g>
    <g>
      <g>
        <path d="M215.646,350.804 L275.174,350.804 C277.623,350.804 279.608,352.79 279.608,355.24 L279.608,365.33 C279.608,367.779 277.623,369.765 275.174,369.765 L215.646,369.765 C213.198,369.765 211.213,367.779 211.213,365.33 L211.213,355.24 C211.213,352.79 213.198,350.804 215.646,350.804 z" fill="#FFFFFF"/>
        <path d="M215.646,350.804 L275.174,350.804 C277.623,350.804 279.608,352.79 279.608,355.24 L279.608,365.33 C279.608,367.779 277.623,369.765 275.174,369.765 L215.646,369.765 C213.198,369.765 211.213,367.779 211.213,365.33 L211.213,355.24 C211.213,352.79 213.198,350.804 215.646,350.804 z" fill-opacity="0" stroke="#000000" stroke-width="1"/>
      </g>
      <text transform="matrix(1, 0, 0, 1, 246.965, 359.804)">
        <tspan x="-32.143" y="4.5" font-family="SourceCodePro-Bold" font-size="14" fill="#000000">Logical</tspan>
      </text>
    </g>
    <g>
      <path d="M214.159,207.167 C203.476,207.167 194.815,198.883 194.815,188.665 C194.815,178.446 203.476,170.163 214.159,170.163 C224.842,170.163 233.503,178.446 233.503,188.665 C233.503,198.883 224.842,207.167 214.159,207.167 z" fill="#FFFFFF"/>
      <path d="M214.159,207.167 C203.476,207.167 194.815,198.883 194.815,188.665 C194.815,178.446 203.476,170.163 214.159,170.163 C224.842,170.163 233.503,178.446 233.503,188.665 C233.503,198.883 224.842,207.167 214.159,207.167 z" fill-opacity="0" stroke="#000000" stroke-width="1"/>
    </g>
    <path d="M202.233,188.292 C202.233,188.292 211.132,194.62 211.132,200.456 C211.132,206.292 219.065,177.26 227.803,180.276" fill-opacity="0" stroke="#00B000" stroke-width="2"/>
    <g>
      <g>
        <path d="M300.992,300.438 C292.913,300.438 286.364,294.174 286.364,286.447 C286.364,278.72 292.913,272.456 300.992,272.456 C309.071,272.456 315.62,278.72 315.62,286.447 C315.62,294.174 309.071,300.438 300.992,300.438 z" fill="#FFFFFF"/>
        <path d="M300.992,300.438 C292.913,300.438 286.364,294.174 286.364,286.447 C286.364,278.72 292.913,272.456 300.992,272.456 C309.071,272.456 315.62,278.72 315.62,286.447 C315.62,294.174 309.071,300.438 300.992,300.438 z" fill-opacity="0" stroke="#000000" stroke-width="1"/>
      </g>
      <path d="M291.974,286.165 C291.974,286.165 298.703,290.95 298.703,295.363 C298.703,299.776 304.702,277.823 311.31,280.103" fill-opacity="0" stroke="#00B000" stroke-width="2"/>
    </g>
    <g>
      <g>
        <path d="M8.205,272.456 L67.733,272.456 C70.182,272.456 72.167,274.442 72.167,276.892 L72.167,286.981 C72.167,289.431 70.182,291.417 67.733,291.417 L8.205,291.417 C5.756,291.417 3.771,289.431 3.771,286.981 L3.771,276.892 C3.771,274.442 5.756,272.456 8.205,272.456 z" fill="#FFFFFF"/>
        <path d="M8.205,272.456 L67.733,272.456 C70.182,272.456 72.167,274.442 72.167,276.892 L72.167,286.981 C72.167,289.431 70.182,291.417 67.733,291.417 L8.205,291.417 C5.756,291.417 3.771,289.431 3.771,286.981 L3.771,276.892 C3.771,274.442 5.756,272.456 8.205,272.456 z" fill-opacity="0" stroke="#000000" stroke-width="1"/>
      </g>
      <text transform="matrix(1, 0, 0, 1, 39.524, 281.456)">
        <tspan x="-32.143" y="4.5" font-family="SourceCodePro-Bold" font-size="14" fill="#000000">Logical</tspan>
      </text>
    </g>
    <g>
      <g>
        <path d="M21.538,350.804 L81.066,350.804 C83.515,350.804 85.5,352.79 85.5,355.24 L85.5,365.33 C85.5,367.779 83.515,369.765 81.066,369.765 L21.538,369.765 C19.09,369.765 17.105,367.779 17.105,365.33 L17.105,355.24 C17.105,352.79 19.09,350.804 21.538,350.804 z" fill="#FFFFFF"/>
        <path d="M21.538,350.804 L81.066,350.804 C83.515,350.804 85.5,352.79 85.5,355.24 L85.5,365.33 C85.5,367.779 83.515,369.765 81.066,369.765 L21.538,369.765 C19.09,369.765 17.105,367.779 17.105,365.33 L17.105,355.24 C17.105,352.79 19.09,350.804 21.538,350.804 z" fill-opacity="0" stroke="#000000" stroke-width="1"/>
      </g>
      <text transform="matrix(1, 0, 0, 1, 52.857, 359.804)">
        <tspan x="-32.143" y="4.5" font-family="SourceCodePro-Bold" font-size="14" fill="#000000">Logical</tspan>
      </text>
    </g>
    <g>
      <g>
        <path d="M137.963,293.947 C131.039,293.947 125.426,288.578 125.426,281.956 C125.426,275.333 131.039,269.965 137.963,269.965 C144.887,269.965 150.5,275.333 150.5,281.956 C150.5,288.578 144.887,293.947 137.963,293.947 z" fill="#FFFFFF"/>
        <path d="M137.963,293.947 C131.039,293.947 125.426,288.578 125.426,281.956 C125.426,275.333 131.039,269.965 137.963,269.965 C144.887,269.965 150.5,275.333 150.5,281.956 C150.5,288.578 144.887,293.947 137.963,293.947 z" fill-opacity="0" stroke="#000000" stroke-width="1"/>
      </g>
      <path d="M130.234,281.714 C130.234,281.714 136.001,285.815 136.001,289.598 C136.001,293.38 141.143,274.564 146.806,276.519" fill-opacity="0" stroke="#00B000" stroke-width="2"/>
    </g>
    <g>
      <g>
        <path d="M353.66,377.477 C347.121,377.477 341.82,372.407 341.82,366.152 C341.82,359.898 347.121,354.828 353.66,354.828 C360.199,354.828 365.5,359.898 365.5,366.152 C365.5,372.407 360.199,377.477 353.66,377.477 z" fill="#FFFFFF"/>
        <path d="M353.66,377.477 C347.121,377.477 341.82,372.407 341.82,366.152 C341.82,359.898 347.121,354.828 353.66,354.828 C360.199,354.828 365.5,359.898 365.5,366.152 C365.5,372.407 360.199,377.477 353.66,377.477 z" fill-opacity="0" stroke="#000000" stroke-width="1"/>
      </g>
      <path d="M346.361,365.924 C346.361,365.924 351.807,369.797 351.807,373.369 C351.807,376.941 356.663,359.172 362.012,361.018" fill-opacity="0" stroke="#00B000" stroke-width="2"/>
    </g>
    <g>
      <g>
        <path d="M163.552,378.787 C156.256,378.787 150.342,373.13 150.342,366.152 C150.342,359.174 156.256,353.518 163.552,353.518 C170.847,353.518 176.761,359.174 176.761,366.152 C176.761,373.13 170.847,378.787 163.552,378.787 z" fill="#FFFFFF"/>
        <path d="M163.552,378.787 C156.256,378.787 150.342,373.13 150.342,366.152 C150.342,359.174 156.256,353.518 163.552,353.518 C170.847,353.518 176.761,359.174 176.761,366.152 C176.761,373.13 170.847,378.787 163.552,378.787 z" fill-opacity="0" stroke="#000000" stroke-width="1"/>
      </g>
      <path d="M155.408,365.897 C155.408,365.897 161.484,370.219 161.484,374.204 C161.484,378.189 166.902,358.364 172.869,360.424" fill-opacity="0" stroke="#00B000" stroke-width="2"/>
    </g>
    <path d="M0.5,0.5 L499.5,0.5 L499.5,439.5 L0.5,439.5 z" fill-opacity="0" stroke="#000000" stroke-width="1"/>
  </g>
  <defs/>
</svg>
