<?xml version="1.0" encoding="UTF-8"?>
<!DOCTYPE svg PUBLIC "-//W3C//DTD SVG 1.1//EN" "http://www.w3.org/Graphics/SVG/1.1/DTD/svg11.dtd">
<svg version="1.1" xmlns="http://www.w3.org/2000/svg" xmlns:xlink="http://www.w3.org/1999/xlink" x="0px" y="0px" width="500" height="440" viewBox="0, 0, 500, 440">
  <g id="Background">
    <rect x="0" y="0" width="500" height="440" fill="#FFFFFF"/>
  </g>
  <g id="Layer 1">
    <g>
      <path d="M170.723,50.141 L330.277,50.141 L330.277,126.461 L170.723,126.461 z" fill="#FFFFFF"/>
      <path d="M170.723,50.141 L330.277,50.141 L330.277,126.461 L170.723,126.461 z" fill-opacity="0" stroke="#000000" stroke-width="1"/>
    </g>
    <text transform="matrix(1, 0, 0, 1, 248.986, 90.951)">
      <tspan x="-67.2" y="-10.381" font-family="SourceCodePro-Light" font-size="16" fill="#000000">Monthly Profit </tspan>
      <tspan x="-52.8" y="9.619" font-family="SourceCodePro-Light" font-size="16" fill="#000000">Report Page</tspan>
    </text>
    <path d="M211.514,165.277 L271.839,165.277 L289.486,181.218 L289.486,284.555 L214.298,284.555 L211.514,165.277 z" fill-opacity="0" stroke="#000000" stroke-width="1"/>
    <text transform="matrix(1, 0, 0, 1, 250, 190.788)">
      <tspan x="-28.8" y="4.242" font-family="SourceCodePro-Light" font-size="16" fill="#000000">Resumé</tspan>
    </text>
    <path d="M230.712,215.828 C244.577,210.957 260.162,215.207 273.972,215.207" fill-opacity="0" stroke="#000000" stroke-width="2" stroke-linecap="round"/>
    <path d="M230.431,233.759 C246.111,230.648 258.823,229.765 275.172,229.765" fill-opacity="0" stroke="#000000" stroke-width="2" stroke-linecap="round"/>
    <path d="M233.196,255.876 C247.55,250.775 258.606,248.803 275.172,248.803" fill-opacity="0" stroke="#000000" stroke-width="2" stroke-linecap="round"/>
    <path d="M247.055,126.461 L247.5,165.277" fill-opacity="0" stroke="#000000" stroke-width="1"/>
    <path d="M0.5,0.5 L499.5,0.5 L499.5,439.5 L0.5,439.5 z" fill-opacity="0" stroke="#000000" stroke-width="1"/>
  </g>
  <defs/>
</svg>
