<?xml version="1.0" encoding="UTF-8"?>
<!DOCTYPE svg PUBLIC "-//W3C//DTD SVG 1.1//EN" "http://www.w3.org/Graphics/SVG/1.1/DTD/svg11.dtd">
<svg version="1.1" xmlns="http://www.w3.org/2000/svg" xmlns:xlink="http://www.w3.org/1999/xlink" x="0px" y="0px" width="500" height="380" viewBox="0, 0, 500, 380">
  <g id="Background">
    <rect x="0" y="0" width="500" height="380" fill="#FFFFFF"/>
  </g>
  <g id="Layer 1">
    <path d="M15.516,352.52 L219.516,244.52" fill-opacity="0" stroke="#000000" stroke-width="1"/>
    <path d="M219.516,244.52 L219.516,352.52" fill-opacity="0" stroke="#000000" stroke-width="1"/>
    <path d="M195.516,208.52 C188.888,208.52 183.516,203.147 183.516,196.52 C183.516,189.892 188.888,184.52 195.516,184.52 C202.143,184.52 207.516,189.892 207.516,196.52 C207.516,203.147 202.143,208.52 195.516,208.52 z" fill-opacity="0" stroke="#000000" stroke-width="1"/>
    <path d="M195.516,208.52 L195.516,244.52" fill-opacity="0" stroke="#000000" stroke-width="1"/>
    <path d="M195.516,244.52 L183.516,256.52" fill-opacity="0" stroke="#000000" stroke-width="1"/>
    <path d="M195.516,244.52 L207.516,244.52" fill-opacity="0" stroke="#000000" stroke-width="1"/>
    <path d="M195.516,220.52 L183.516,220.52" fill-opacity="0" stroke="#000000" stroke-width="1"/>
    <path d="M183.516,220.52 L171.516,208.52" fill-opacity="0" stroke="#000000" stroke-width="1"/>
    <path d="M171.516,208.52 L159.516,208.52" fill-opacity="0" stroke="#000000" stroke-width="1"/>
    <path d="M195.516,220.52 L207.516,220.52" fill-opacity="0" stroke="#000000" stroke-width="1"/>
    <path d="M207.516,220.52 L219.516,208.52" fill-opacity="0" stroke="#000000" stroke-width="1"/>
    <path d="M219.516,208.52 L231.516,208.52" fill-opacity="0" stroke="#000000" stroke-width="1"/>
    <path d="M256.52,352.52 L472.52,52.52" fill-opacity="0" stroke="#000000" stroke-width="1"/>
    <path d="M472.52,52.52 L472.52,352.52" fill-opacity="0" stroke="#000000" stroke-width="1"/>
    <path d="M472.52,352.52 L256.52,352.52" fill-opacity="0" stroke="#000000" stroke-width="1"/>
    <path d="M15.516,352.52 L219.516,352.52" fill-opacity="0" stroke="#000000" stroke-width="1"/>
    <g>
      <path d="M130.516,124.52 L200.516,124.52 C204.382,124.52 207.516,127.654 207.516,131.52 L207.516,165.52 C207.516,169.386 204.382,172.52 200.516,172.52 L130.516,172.52 C126.65,172.52 123.516,169.386 123.516,165.52 L123.516,131.52 C123.516,127.654 126.65,124.52 130.516,124.52 z" fill-opacity="0" stroke="#000000" stroke-width="1"/>
      <path d="M171.516,172.52 C183.516,196.52 171.516,172.52 195.516,172.52" fill-opacity="0" stroke="#000000" stroke-width="1"/>
    </g>
    <text transform="matrix(1, 0, 0, 1, 166.016, 149.52)">
      <tspan x="-39.26" y="-6.5" font-family="SourceSansPro-Light" font-size="19" fill="#000000">WTF now, </tspan>
      <tspan x="-39.26" y="17.5" font-family="SourceSansPro-Light" font-size="19" fill="#000000">guys?</tspan>
    </text>
    <g>
      <path d="M397.559,29.516 L456.995,49.634" fill-opacity="0" stroke="#000000" stroke-width="1"/>
      <path d="M456.033,52.476 L464.572,52.199 L457.957,46.792 z" fill="#000000" fill-opacity="1" stroke="#000000" stroke-width="1" stroke-opacity="1"/>
    </g>
    <text transform="matrix(1, 0, 0, 1, 352.743, 20.016)">
      <tspan x="-34.685" y="6.5" font-family="SourceSansPro-Light" font-size="19" fill="#000000">End Goal</tspan>
    </text>
  </g>
  <defs/>
</svg>
