<?xml version="1.0" encoding="UTF-8"?>
<!DOCTYPE svg PUBLIC "-//W3C//DTD SVG 1.1//EN" "http://www.w3.org/Graphics/SVG/1.1/DTD/svg11.dtd">
<svg version="1.1" xmlns="http://www.w3.org/2000/svg" xmlns:xlink="http://www.w3.org/1999/xlink" x="0" y="0" width="310" height="290" viewBox="0, 0, 310, 290">
  <g id="Background">
    <rect x="0" y="0" width="310" height="290" fill="#FFFFFF"/>
  </g>
  <g id="Layer_1">
    <g>
      <text transform="matrix(1, 0, 0, 1, 271.287, 34.5)">
        <tspan x="-60.339" y="-5.5" font-family="Helvetica" font-size="21" fill="#222222">Leery</tspan>
      </text>
      <path d="M205.948,21.8 C205.948,25.114 203.262,27.8 199.948,27.8 C196.634,27.8 193.948,25.114 193.948,21.8 C193.948,18.486 196.634,15.8 199.948,15.8 C203.262,15.8 205.948,18.486 205.948,21.8 z" fill="#0B5394"/>
    </g>
    <g>
      <text transform="matrix(1, 0, 0, 1, 89.156, 275.3)">
        <tspan x="-55.165" y="-5.5" font-family="Helvetica" font-size="21" fill="#222222">Naive</tspan>
      </text>
      <path d="M29.991,264.8 C29.991,268.114 27.304,270.8 23.991,270.8 C20.677,270.8 17.991,268.114 17.991,264.8 C17.991,261.486 20.677,258.8 23.991,258.8 C27.304,258.8 29.991,261.486 29.991,264.8 z" fill="#3D85C6"/>
    </g>
    <g>
      <g>
        <path d="M154.999,144.996 L154.999,30.996 C193.657,30.996 229.68,50.587 250.691,83.036 L154.999,144.996" fill="#0B5394"/>
        <path d="M154.999,144.996 L154.999,30.996 C193.657,30.996 229.68,50.587 250.691,83.036 L154.999,144.996" fill-opacity="0" stroke="#FFFFFF" stroke-width="1"/>
      </g>
      <text transform="matrix(1, 0, 0, 1, 207.502, 95.484)">
        <tspan x="-37.513" y="-5.5" font-family="Helvetica" font-size="21" fill="#FFFFFF">15.9%</tspan>
      </text>
    </g>
    <g>
      <g>
        <path d="M154.999,144.996 L250.691,83.036 C279.028,126.801 274.063,184.214 238.633,222.464 C203.203,260.714 146.338,270.053 100.535,245.144 C54.732,220.235 31.665,167.427 44.516,116.897 C57.367,66.368 102.861,30.996 154.999,30.996 L154.999,144.996" fill="#3D85C6"/>
        <path d="M154.999,144.996 L250.691,83.036 C279.028,126.801 274.063,184.214 238.633,222.464 C203.203,260.714 146.338,270.053 100.535,245.144 C54.732,220.235 31.665,167.427 44.516,116.897 C57.367,66.368 102.861,30.996 154.999,30.996 L154.999,144.996" fill-opacity="0" stroke="#FFFFFF" stroke-width="1"/>
      </g>
      <text transform="matrix(1, 0, 0, 1, 129.021, 196.908)">
        <tspan x="-33.013" y="2.5" font-family="Helvetica" font-size="21" fill="#FFFFFF">84.1%</tspan>
      </text>
    </g>
  </g>
</svg>
